<svg aria-hidden="true" style="position: absolute; width: 0; height: 0; overflow: hidden;" version="1.1" xmlns="http://www.w3.org/2000/svg" xmlns:xlink="http://www.w3.org/1999/xlink">
<defs>
<symbol id="icon-git" viewBox="0 0 42 32">
<path d="M16.342 22.019c0 1.73-0.901 4.562-3.035 4.562s-3.035-2.832-3.035-4.562c0-1.731 0.901-4.562 3.035-4.562s3.035 2.832 3.035 4.562zM40.648 17.837c0 2.641-0.265 5.44-1.447 7.866-3.134 6.342-11.752 6.193-17.921 6.193-6.269 0-15.399 0.224-18.657-6.193-1.207-2.401-1.671-5.224-1.671-7.866 0-3.469 1.15-6.748 3.432-9.406-0.43-1.308-0.637-2.683-0.637-4.040 0-1.78 0.405-2.674 1.207-4.289 3.746 0 6.145 0.745 8.998 2.981 2.398-0.571 4.863-0.828 7.336-0.828 2.233 0 4.482 0.24 6.649 0.762 2.812-2.211 5.21-2.914 8.915-2.914 0.81 1.615 1.207 2.509 1.207 4.289 0 1.358-0.215 2.707-0.637 3.991 2.274 2.683 3.225 5.986 3.225 9.455zM35.33 22.019c0-3.635-2.208-6.839-6.079-6.839-1.563 0-3.060 0.281-4.631 0.497-1.232 0.19-2.464 0.265-3.73 0.265-1.257 0-2.489-0.075-3.73-0.265-1.546-0.215-3.060-0.497-4.631-0.497-3.87 0-6.079 3.204-6.079 6.839 0 7.27 6.649 8.387 12.438 8.387h3.986c5.814 0 12.455-1.11 12.455-8.387zM28.499 17.457c-2.134 0-3.035 2.832-3.035 4.562s0.901 4.562 3.035 4.562c2.134 0 3.035-2.832 3.035-4.562s-0.901-4.562-3.035-4.562z"></path>
</symbol>
<symbol id="icon-globaltalk" viewBox="0 0 45 32">
<path d="M12.334 18.378h12.699v12.312h-5.234l-0.624-5.264c-0.595 1.883-1.656 3.281-3.182 4.193s-3.39 1.368-5.591 1.368c-2.002 0-3.787-0.446-5.353-1.338-1.546-0.892-2.766-2.171-3.658-3.836-0.872-1.665-1.308-3.608-1.308-5.829 0-3.549 1.061-6.354 3.182-8.416s5.422-3.093 9.903-3.093c2.558 0 4.808 0.416 6.751 1.249 1.963 0.833 3.628 2.121 4.996 3.866-0.892 0.456-2.637 1.368-5.234 2.736l-0.743 0.416c-0.773-0.773-1.675-1.348-2.706-1.725-1.031-0.396-2.121-0.595-3.271-0.595-1.903 0-3.321 0.506-4.253 1.517-0.932 0.991-1.398 2.22-1.398 3.688 0 1.586 0.496 2.865 1.487 3.836 1.011 0.971 2.548 1.457 4.61 1.457 0.892 0 1.755-0.129 2.587-0.387 0.852-0.258 1.566-0.704 2.141-1.338h-5.799v-4.818z"></path>
<path d="M44.719 7.258c-3.113-0.099-6.136-0.159-9.070-0.178v15.524h-7.435v-15.524c-2.954 0.020-5.968 0.079-9.040 0.178v-6.245h25.546v6.245z"></path>
</symbol>
<symbol id="icon-youtube" viewBox="0 0 46 32">
<path d="M40.405 1.217c-3.347-0.837-17.572-0.837-17.572-0.837s-13.946 0-17.572 0.837c-1.952 0.558-3.347 1.952-3.905 3.905-0.558 3.626-0.558 10.878-0.558 10.878s0 7.252 0.837 10.878c0.558 1.952 1.952 3.347 3.905 3.905 3.347 0.837 17.572 0.837 17.572 0.837s13.946 0 17.572-0.837c1.953-0.558 3.347-1.953 3.905-3.905 0.837-3.626 0.837-10.878 0.837-10.878s0-7.252-1.116-10.878c-0.558-1.952-1.952-3.347-3.905-3.905zM18.649 10.531c0-0.546 0.59-0.888 1.064-0.617l9.57 5.469c0.478 0.273 0.478 0.962 0 1.235l-9.57 5.469c-0.474 0.271-1.064-0.071-1.064-0.617v-10.937z"></path>
</symbol>
</defs>
</svg>
